<?xml version="1.0" encoding="UTF-8"?><svg xmlns="http://www.w3.org/2000/svg" xmlns:xlink="http://www.w3.org/1999/xlink" data-name="Layer 1" height="21.8" preserveAspectRatio="xMidYMid meet" version="1.0" viewBox="1.0 1.5 22.4 21.8" width="22.4" zoomAndPan="magnify"><g id="change1_1"><path d="M12,1.5A10.48693,10.48693,0,0,0,3.00586,17.40137L1.52539,21.8418A.50037.50037,0,0,0,2,22.5a.4925.4925,0,0,0,.1582-.02588l4.44043-1.48A10.49637,10.49637,0,1,0,12,1.5Zm0,20a9.46682,9.46682,0,0,1-5.07031-1.47656.50018.50018,0,0,0-.26758-.07764.4925.4925,0,0,0-.1582.02588L2.79,21.20947l1.23828-3.71338a.50338.50338,0,0,0-.05176-.42578A9.49332,9.49332,0,1,1,12,21.5ZM8,12a1,1,0,1,1-1-1A1,1,0,0,1,8,12Zm5,0a1,1,0,1,1-1-1A1,1,0,0,1,13,12Zm5,0a1,1,0,1,1-1-1A1,1,0,0,1,18,12Z" fill="inherit"/></g></svg>