<?xml version="1.0" encoding="UTF-8" standalone="no"?>
<svg
   data-name="Layer 1"
   height="21.8"
   preserveAspectRatio="xMidYMid meet"
   version="1.0"
   viewBox="1.0 1.5 22.4 21.8"
   width="22.4"
   zoomAndPan="magnify"
   id="svg1"
   sodipodi:docname="chat.svg"
   inkscape:version="1.3.2 (091e20ef0f, 2023-11-25, custom)"
   xmlns:inkscape="http://www.inkscape.org/namespaces/inkscape"
   xmlns:sodipodi="http://sodipodi.sourceforge.net/DTD/sodipodi-0.dtd"
   xmlns="http://www.w3.org/2000/svg"
   xmlns:svg="http://www.w3.org/2000/svg">
  <defs
     id="defs1" />
  <sodipodi:namedview
     id="namedview1"
     pagecolor="#ffffff"
     bordercolor="#000000"
     borderopacity="0.25"
     inkscape:showpageshadow="2"
     inkscape:pageopacity="0.0"
     inkscape:pagecheckerboard="0"
     inkscape:deskcolor="#d1d1d1"
     inkscape:zoom="13.968516"
     inkscape:cx="8.1254158"
     inkscape:cy="6.2998819"
     inkscape:window-width="1230"
     inkscape:window-height="1036"
     inkscape:window-x="0"
     inkscape:window-y="0"
     inkscape:window-maximized="0"
     inkscape:current-layer="svg1" />
  <g
     id="change1_1"
     style="fill:#cccccc">
    <path
       d="M12,1.5A10.48693,10.48693,0,0,0,3.00586,17.40137L1.52539,21.8418A.50037.50037,0,0,0,2,22.5a.4925.4925,0,0,0,.1582-.02588l4.44043-1.48A10.49637,10.49637,0,1,0,12,1.5Zm0,20a9.46682,9.46682,0,0,1-5.07031-1.47656.50018.50018,0,0,0-.26758-.07764.4925.4925,0,0,0-.1582.02588L2.79,21.20947l1.23828-3.71338a.50338.50338,0,0,0-.05176-.42578A9.49332,9.49332,0,1,1,12,21.5ZM8,12a1,1,0,1,1-1-1A1,1,0,0,1,8,12Zm5,0a1,1,0,1,1-1-1A1,1,0,0,1,13,12Zm5,0a1,1,0,1,1-1-1A1,1,0,0,1,18,12Z"
       fill="inherit"
       id="path1"
       style="fill:#cccccc" />
  </g>
</svg>
