<?xml version="1.0" encoding="UTF-8" standalone="no"?><svg xmlns:inkscape="http://www.inkscape.org/namespaces/inkscape" xmlns:sodipodi="http://sodipodi.sourceforge.net/DTD/sodipodi-0.dtd" xmlns="http://www.w3.org/2000/svg" xmlns:svg="http://www.w3.org/2000/svg" xmlns:rdf="http://www.w3.org/1999/02/22-rdf-syntax-ns#" xmlns:cc="http://creativecommons.org/ns#" xmlns:dc="http://purl.org/dc/elements/1.1/" width="100" height="100" viewBox="0 0 26 26" version="1.2" baseProfile="tiny-ps"><title id="title1">bimi-svg-tiny-12-ps</title><defs id="defs1"/><g id="layer1" transform="translate(-26.479339,-157.89273)"><g id="g15-7" transform="translate(-4.05757,46.08891)"><g id="g14-5" transform="matrix(1.00978,0,0,1.00978,4.108004,-97.043051)" fill-opacity="1" fill="#ff4c29"/><path d="m 43.738473,135.12182 c -0.967856,-0.27365 -1.452306,-1.31394 -1.054856,-2.26518 0.115875,-0.27732 0.514264,-0.67096 0.815391,-0.80566 0.206904,-0.0926 0.360915,-0.12003 0.678388,-0.12103 0.524012,-0.002 0.88876,0.16172 1.228779,0.55041 l 0.230031,0.26296 0.540694,-0.24271 c 1.352561,-0.60716 1.619931,-0.74567 1.619675,-0.83901 -1.41e-4,-0.0508 0.03896,-0.20174 0.08688,-0.33546 l 0.08714,-0.24312 -0.255422,-0.37296 c -0.18732,-0.27351 -0.282349,-0.36958 -0.356419,-0.36033 -0.530927,0.0663 -0.783064,-0.0155 -1.058066,-0.34343 l -0.172398,-0.20558 -0.616074,0.10107 c -0.738002,0.12107 -0.778206,0.0959 -0.805232,0.20769 -0.01024,0.0423 -0.04457,0.29202 -0.108308,0.36266 -0.07151,0.0793 -0.146727,0.15172 -0.277101,0.1906 -0.05349,0.016 -0.201507,0.0352 -0.305238,0.0188 -0.13005,-0.0207 -0.266963,-0.0717 -0.379827,-0.20027 -0.143636,-0.1636 -0.160605,-0.21369 -0.13858,-0.4091 0.03161,-0.28042 0.102282,-0.3651 0.423509,-0.50741 l 0.257443,-0.11405 0.226193,-0.66951 0.226193,-0.6695 -0.157329,-0.17919 c -0.218968,-0.24938 -0.290623,-0.48874 -0.222289,-0.74251 0.164574,-0.61118 0.889897,-0.77249 1.334352,-0.29675 0.177651,0.19015 0.20685,0.65288 0.05633,0.89275 -0.115705,0.1844 -0.45324,0.36628 -0.683119,0.36811 -0.157896,0.001 -0.133579,-0.0403 -0.444529,0.75878 l -0.204939,0.52662 0.224643,0.2099 c 0.05367,0.0603 0.122184,0.25077 0.198535,0.24948 0.06154,-0.001 0.400071,-0.0648 0.752308,-0.14183 l 0.64043,-0.13992 0.03932,-0.23031 c 0.07645,-0.44785 0.400798,-0.7182 0.861637,-0.7182 0.36881,0 0.659639,0.18788 0.788204,0.5092 0.116131,0.29023 0.106501,0.45716 -0.04343,0.75274 l -0.128106,0.25257 0.267276,0.3963 c 0.263861,0.39124 0.269949,0.39619 0.476696,0.38719 0.285336,-0.0124 0.517775,0.0941 0.641254,0.29391 0.194667,0.31498 0.09956,0.73682 -0.206949,0.91789 -0.200271,0.11829 -0.568518,0.10887 -0.730716,-0.0187 -0.0718,-0.0564 -0.151038,-0.10268 -0.176097,-0.10268 -0.05131,0 -0.917093,0.38011 -1.668357,0.73246 l -0.497969,0.23357 0.02968,0.35393 c 0.03792,0.45229 -0.06714,0.82375 -0.330903,1.17001 -0.367634,0.48261 -1.129032,0.73876 -1.70873,0.57486 z m -3.4788,-2.34737 c -0.200075,-0.12198 -0.327425,-0.39224 -0.306817,-0.65112 0.01465,-0.18401 0.01134,-0.18717 -0.858067,-0.82263 -0.480024,-0.35084 -0.921584,-0.66146 -0.981245,-0.69025 -0.08966,-0.0432 -0.149389,-0.0211 -0.344281,0.12765 -0.311247,0.23758 -0.549242,0.3124 -0.987528,0.31046 -0.435636,-0.002 -0.815883,-0.15692 -1.121005,-0.45692 -0.630146,-0.61957 -0.630146,-1.68631 0,-2.30589 0.482454,-0.47435 1.240527,-0.60701 1.827565,-0.31979 0.769782,0.37661 1.12752,1.27811 0.82255,2.0728 l -0.102214,0.26635 0.109373,0.0977 c 0.06015,0.0537 0.486275,0.36945 0.946932,0.70161 0.725337,0.52302 0.856035,0.59917 0.97545,0.56837 0.07584,-0.0196 0.234653,-0.0473 0.352921,-0.0616 0.209204,-0.0253 0.220679,-0.0369 0.42355,-0.42684 0.239613,-0.46056 0.247821,-0.51333 0.100584,-0.64658 -0.250257,-0.22648 -0.329594,-0.66561 -0.174116,-0.96373 0.04218,-0.0809 0.07669,-0.18106 0.07669,-0.22264 0,-0.0416 -0.200602,-0.3173 -0.445783,-0.61272 l -0.445781,-0.53714 -0.268761,0.0336 c -0.327485,0.0409 -0.541637,-0.064 -0.666174,-0.32648 -0.116418,-0.24532 -0.0605,-0.47881 0.161343,-0.67358 0.257776,-0.22633 0.5183,-0.21977 0.783409,0.0197 l 0.196678,0.17769 0.713643,-0.12947 c 0.392505,-0.0712 0.731114,-0.15694 0.752464,-0.19052 0.02135,-0.0336 0.03917,-0.11127 0.0396,-0.17263 4.32e-4,-0.0614 0.06129,-0.18349 0.13525,-0.27138 0.603252,-0.71692 1.671422,-0.044 1.270678,0.80052 -0.09921,0.20907 -0.230949,0.31037 -0.497209,0.38235 -0.27584,0.0745 -0.527971,-0.0199 -0.780523,-0.29245 l -0.206296,-0.22261 -0.589466,0.10087 c -0.852141,0.14583 -0.79803,0.12209 -0.885738,0.38851 l -0.07781,0.23636 0.234607,0.29047 c 0.658318,0.81507 0.686133,0.84114 0.855362,0.80165 0.339675,-0.0793 0.733508,-0.0539 0.881608,0.0567 0.250746,0.18731 0.345434,0.3616 0.367461,0.67639 0.01729,0.24701 8.7e-4,0.3248 -0.09935,0.47085 -0.188541,0.27479 -0.376044,0.38612 -0.698995,0.41511 l -0.28996,0.026 -0.157834,0.28236 c -0.287303,0.51399 -0.306958,0.59108 -0.192456,0.75483 0.162724,0.23273 0.181073,0.40442 0.07004,0.65542 -0.164545,0.37198 -0.569729,0.49641 -0.920358,0.28264 z m 10.525363,-1.99191 c -0.33936,-0.12111 -0.603944,-0.32977 -0.817736,-0.64489 -0.569574,-0.83952 -0.23733,-1.97831 0.704534,-2.41484 0.155301,-0.072 0.354622,-0.13109 0.442934,-0.13136 0.08832,-2.8e-4 0.183698,-0.0294 0.21197,-0.0647 0.02827,-0.0353 0.08979,-0.50313 0.136708,-1.03963 0.04692,-0.53649 0.09636,-1.0332 0.109874,-1.1038 0.01928,-0.10067 -0.03042,-0.18741 -0.230811,-0.40268 l -0.255378,-0.27432 -0.435076,0.0363 -0.435076,0.0362 -0.144783,0.28943 c -0.170733,0.3413 -0.389677,0.50513 -0.73653,0.55115 l -0.245668,0.0326 -0.236058,0.64862 c -0.129832,0.35673 -0.235974,0.66865 -0.235871,0.69316 1.03e-4,0.0245 0.06949,0.12351 0.154204,0.21998 0.354763,0.40405 0.0665,0.99328 -0.485928,0.99328 -0.136778,0 -0.231423,-0.0444 -0.374761,-0.17574 -0.196232,-0.17984 -0.218618,-0.28478 -0.15605,-0.73157 0.01096,-0.0782 -0.121084,-0.27502 -0.441707,-0.65844 -0.37981,-0.4542 -0.475533,-0.54145 -0.564734,-0.51469 -0.301329,0.0904 -0.471783,0.082 -0.694012,-0.0341 -0.705066,-0.36837 -0.449033,-1.42699 0.345292,-1.42769 0.580522,-5e-4 0.900239,0.47983 0.703884,1.05751 -0.08855,0.26049 -0.08838,0.27275 0.0054,0.39008 0.252392,0.31591 0.80849,0.96518 0.826669,0.96518 0.01123,0 0.122358,-0.0256 0.246952,-0.057 0.250251,-0.063 0.218127,-0.006 0.568936,-1.00608 l 0.147842,-0.42139 -0.186156,-0.19469 c -0.248269,-0.25966 -0.300974,-0.37452 -0.300974,-0.65592 0,-0.28658 0.08969,-0.47277 0.328917,-0.68282 0.38696,-0.33975 0.948963,-0.24183 1.274022,0.22198 l 0.168272,0.24011 0.436386,-0.0328 c 0.363312,-0.0274 0.44928,-0.051 0.513394,-0.14118 0.326041,-0.45858 0.619883,-0.58752 0.95707,-0.41994 0.268602,0.13348 0.403426,0.33685 0.403426,0.60853 0,0.27099 -0.13472,0.47498 -0.401195,0.60746 -0.104065,0.0517 -0.189363,0.12105 -0.18955,0.15402 -1.87e-4,0.0329 -0.04595,0.51045 -0.101684,1.06107 -0.05574,0.55061 -0.101792,1.0514 -0.102339,1.11287 -7.62e-4,0.0856 0.06349,0.14127 0.2747,0.23796 0.376324,0.17229 0.669065,0.45031 0.83941,0.79718 0.122071,0.24858 0.142713,0.35373 0.142713,0.727 0,0.51446 -0.120059,0.81584 -0.460704,1.15649 -0.44055,0.44054 -1.131434,0.59896 -1.710701,0.39224 z M 38.372,126.26145 c -0.211917,-0.0962 -0.402247,-0.29166 -0.459364,-0.47161 -0.02783,-0.0876 -0.08271,-0.0983 -0.502676,-0.0977 -0.510794,8.5e-4 -0.567855,0.0183 -0.621273,0.18948 -0.05049,0.16186 -0.310962,0.36476 -0.518118,0.40363 -0.394296,0.074 -0.775135,-0.30589 -0.724061,-0.72222 0.02456,-0.20013 0.140799,-0.34074 0.48815,-0.59042 0.09507,-0.0684 0.121691,-0.20314 0.236517,-1.19766 0.07116,-0.61636 0.118199,-1.13876 0.104524,-1.16089 -0.01367,-0.0221 -0.246548,-0.0949 -0.458149,-0.25687 -0.283031,-0.21655 -0.429212,-0.31154 -0.62838,-0.74708 -0.165054,-0.36094 -0.182117,-0.79759 -0.04658,-1.20319 0.131485,-0.39349 0.561365,-0.82358 0.977182,-0.97768 1.035101,-0.38361 2.181927,0.40786 2.181927,1.50582 0,0.83811 -0.534301,1.46666 -1.394146,1.64007 l -0.325726,0.0657 -0.143668,1.16341 -0.143669,1.16341 0.207843,0.20784 c 0.114313,0.11432 0.207842,0.23179 0.207842,0.26105 0,0.034 0.178275,0.0479 0.495112,0.0385 0.534523,-0.0159 0.502497,0.002 0.665611,-0.36581 0.112057,-0.25251 0.394722,-0.43913 0.724234,-0.47815 l 0.258301,-0.0306 0.237528,-0.62519 c 0.13064,-0.34385 0.237527,-0.66323 0.237527,-0.70973 0,-0.0464 -0.05493,-0.1438 -0.122077,-0.21625 -0.25434,-0.27444 -0.191676,-0.70181 0.131823,-0.89904 0.203211,-0.1239 0.354671,-0.13079 0.575154,-0.0261 0.30062,0.14266 0.409677,0.49347 0.264699,0.85146 -0.04994,0.12333 0.878259,1.24556 0.991597,1.19889 0.359127,-0.1479 0.760824,-0.0303 0.97316,0.28476 0.101018,0.14993 0.117658,0.22862 0.100423,0.47495 -0.01677,0.23972 -0.04861,0.32443 -0.169265,0.45037 -0.367033,0.3831 -0.993993,0.3031 -1.232025,-0.15721 -0.09907,-0.19157 -0.09687,-0.52746 0.0047,-0.72395 0.0444,-0.0858 0.06914,-0.18629 0.05498,-0.22319 -0.01416,-0.037 -0.215635,-0.3009 -0.447721,-0.58667 -0.419162,-0.51611 -0.423206,-0.51935 -0.606876,-0.48642 -0.101697,0.0183 -0.218026,0.0508 -0.258512,0.0724 -0.06892,0.0367 -0.568134,1.2305 -0.568134,1.35857 0,0.0322 0.07137,0.12651 0.158602,0.20944 0.218895,0.20812 0.303601,0.38973 0.302609,0.6488 -0.0012,0.31685 -0.178582,0.6052 -0.459465,0.74697 -0.276565,0.13959 -0.472394,0.14433 -0.750203,0.0182 z m 6.723297,-2.33524 c -0.206319,-0.0934 -0.412081,-0.36577 -0.456254,-0.60402 -0.04774,-0.25748 0.117256,-0.62304 0.343453,-0.76095 0.344243,-0.20988 0.895953,-0.0935 1.06639,0.22499 0.03749,0.0701 0.09383,0.13722 0.125191,0.14925 0.03136,0.012 0.361182,-0.0354 0.732939,-0.10548 l 0.67592,-0.12737 0.07414,-0.22519 c 0.08579,-0.2606 0.106978,-0.22105 -0.501992,-0.9368 -0.287,-0.33732 -0.380055,-0.41609 -0.462056,-0.39111 -0.05648,0.0172 -0.185644,0.0546 -0.287046,0.0831 -0.554475,0.156 -1.154025,-0.42455 -1.044019,-1.01093 0.0773,-0.41204 0.393241,-0.67855 0.861739,-0.7269 l 0.279323,-0.0288 0.189565,-0.42543 0.189565,-0.42543 -0.111226,-0.15045 c -0.247889,-0.33528 -0.154315,-0.76161 0.216832,-0.9879 0.211709,-0.12908 0.429866,-0.12976 0.639423,-0.002 0.226481,0.13809 0.346208,0.34028 0.348348,0.58827 9.94e-4,0.11536 0.01967,0.23759 0.04149,0.27159 0.05789,0.0902 1.729891,1.25672 1.844151,1.2866 0.05534,0.0144 0.145287,-0.0195 0.209889,-0.0793 0.314375,-0.29077 0.875955,-0.44714 1.336584,-0.37217 1.020196,0.16604 1.637983,1.20912 1.299814,2.19464 -0.115381,0.33625 -0.451889,0.71567 -0.811264,0.91473 -0.247258,0.13695 -0.320561,0.15209 -0.736637,0.15209 -0.386442,0 -0.503844,-0.0206 -0.717413,-0.12567 -0.765798,-0.37684 -1.146154,-1.29174 -0.854325,-2.05497 0.08525,-0.22295 0.09431,-0.29375 0.04385,-0.34236 -0.035,-0.0337 -0.466924,-0.34104 -0.95984,-0.68296 -0.598619,-0.41525 -0.922522,-0.61015 -0.97545,-0.58697 -0.04358,0.0191 -0.191247,0.0594 -0.328145,0.0896 -0.244703,0.0539 -0.252294,0.0616 -0.449432,0.45373 l -0.200524,0.39882 0.173301,0.22703 c 0.259485,0.33994 0.289209,0.64584 0.09936,1.02249 -0.07123,0.14131 -0.06535,0.15295 0.284419,0.56473 0.626721,0.73781 0.578787,0.70066 0.820766,0.63607 0.266864,-0.0712 0.525959,0.0377 0.676312,0.28428 0.121848,0.19984 0.129185,0.35208 0.02654,0.55058 -0.201253,0.38918 -0.651708,0.4856 -0.968631,0.20734 -0.09647,-0.0847 -0.2148,-0.15402 -0.262933,-0.15402 -0.04814,0 -0.365342,0.0508 -0.704909,0.11293 -0.516425,0.0944 -0.624081,0.13014 -0.658282,0.21819 -0.02249,0.0579 -0.06948,0.18176 -0.104433,0.27525 -0.132689,0.35494 -0.649846,0.56128 -1.004484,0.40079 z m -2.326734,-0.299 c -0.324069,-0.16736 -0.439392,-0.34648 -0.439392,-0.68249 0,-0.19925 0.02972,-0.3147 0.108046,-0.41978 0.140901,-0.18903 0.381436,-0.32718 0.594391,-0.34139 0.09369,-0.006 0.196019,-0.0276 0.227411,-0.0473 0.03139,-0.0198 0.167303,-0.3244 0.302023,-0.67699 l 0.244946,-0.64108 -0.148005,-0.17801 c -0.0814,-0.0978 -0.173668,-0.17967 -0.205035,-0.18171 -0.133834,-0.009 -1.374867,0.20173 -1.405991,0.23839 -0.0188,0.0221 -0.0618,0.13742 -0.09555,0.25615 -0.08384,0.29497 -0.273139,0.50395 -0.553468,0.611 -0.202914,0.0775 -0.267944,0.0811 -0.47343,0.0264 -0.590528,-0.15746 -0.840748,-0.74724 -0.549298,-1.29473 l 0.125292,-0.23536 -0.25188,-0.39314 c -0.246453,-0.38467 -0.256401,-0.39314 -0.46155,-0.39314 -0.426409,0 -0.717963,-0.27102 -0.717963,-0.66741 0,-0.55915 0.609024,-0.8521 1.067208,-0.51335 l 0.154164,0.11398 1.070681,-0.45706 1.070682,-0.45705 0.0027,-0.43423 c 0.003,-0.48272 0.101719,-0.77298 0.384156,-1.12959 0.230404,-0.29091 0.741355,-0.52899 1.189617,-0.55433 1.957341,-0.11038 2.259829,2.33972 0.794761,3.1117 -0.234294,0.12346 -0.321881,0.14009 -0.728374,0.13826 -0.397924,-0.002 -0.498622,-0.0211 -0.725505,-0.13888 -0.144897,-0.0752 -0.378906,-0.26634 -0.520021,-0.42467 l -0.256573,-0.28787 -1.066372,0.45251 -1.066372,0.4525 -0.08754,0.2567 c -0.04815,0.14118 -0.102571,0.29136 -0.120948,0.33371 -0.02035,0.0469 0.06524,0.23079 0.218979,0.47043 l 0.25239,0.39343 0.306757,-0.0278 c 0.258682,-0.0234 0.340262,-0.009 0.520543,0.0923 0.117583,0.066 0.260734,0.19612 0.318116,0.28897 0.122608,0.19838 0.128189,0.19889 0.917386,0.0842 0.630333,-0.0916 0.718752,-0.12682 0.718752,-0.28617 0,-0.0558 0.07855,-0.18008 0.174555,-0.27608 0.146389,-0.14639 0.211543,-0.17456 0.403792,-0.17456 0.38868,0 0.693556,0.35313 0.620452,0.71865 -0.03981,0.199 -0.295184,0.46216 -0.448513,0.46216 -0.06302,0 -0.151674,0.0289 -0.197003,0.0641 -0.0796,0.062 -0.553283,1.21269 -0.553283,1.34408 0,0.0356 0.04857,0.10863 0.107936,0.16235 0.272039,0.2462 0.331307,0.65848 0.135927,0.94555 -0.258252,0.37946 -0.596897,0.48424 -0.959609,0.29693 z" id="path15-2" stroke-width="1.00978" fill-opacity="1" fill="#ff4c29"/></g></g></svg>
